<?xml version="1.0" standalone="no"?>
<!DOCTYPE svg PUBLIC "-//W3C//DTD SVG 20010904//EN"
 "http://www.w3.org/TR/2001/REC-SVG-20010904/DTD/svg10.dtd">
<svg version="1.0" xmlns="http://www.w3.org/2000/svg"
 width="700.000000pt" height="700.000000pt" viewBox="0 0 700.000000 700.000000"
 preserveAspectRatio="xMidYMid meet">
<metadata>
Created by potrace 1.11, written by Peter Selinger 2001-2013
</metadata>
<g transform="translate(0.000000,700.000000) scale(0.100000,-0.100000)"
fill="#000000" stroke="none">
<path d="M3300 6777 c-3 -2 -32 -7 -65 -11 -33 -3 -94 -13 -135 -22 -41 -9
-83 -17 -92 -19 -152 -31 -366 -115 -586 -230 -66 -34 -259 -170 -342 -240
-91 -77 -249 -238 -296 -301 -16 -22 -32 -41 -35 -44 -13 -10 -126 -177 -166
-245 -174 -296 -282 -628 -309 -950 -6 -78 -7 -417 -1 -475 21 -192 69 -355
159 -540 136 -280 284 -473 768 -1000 161 -175 301 -357 375 -485 47 -81 54
-164 52 -655 -1 -452 1 -499 28 -664 12 -77 25 -116 56 -173 106 -199 272
-355 469 -439 100 -44 194 -62 320 -62 168 0 284 32 428 117 212 126 383 350
416 546 28 164 30 216 31 685 0 256 4 490 9 520 6 44 20 74 71 150 72 109 262
348 443 560 202 236 212 249 330 399 186 238 313 455 392 671 35 94 75 242 85
311 3 24 8 51 10 59 15 56 24 453 11 498 -2 9 -7 44 -11 77 -8 77 -50 269 -81
367 -212 671 -728 1220 -1374 1460 -145 54 -258 83 -470 124 -42 7 -483 18
-490 11z m740 -811 c19 -4 62 -12 95 -17 84 -14 209 -55 280 -92 79 -41 211
-173 258 -257 180 -325 146 -759 -78 -1008 -108 -121 -302 -228 -464 -257 -14
-2 -37 -7 -51 -10 -95 -20 -336 -29 -717 -28 -239 0 -333 -3 -334 -11 -1 -15
-1 -280 0 -331 l1 -40 555 0 c439 0 557 -3 567 -13 9 -9 13 -52 14 -149 1
-116 -2 -139 -16 -153 -16 -16 -62 -17 -564 -17 -300 0 -549 -3 -552 -6 -4 -4
-7 -92 -8 -197 -1 -165 -3 -193 -17 -204 -24 -17 -344 -15 -361 2 -9 9 -13 67
-14 205 -1 106 -2 194 -3 197 0 3 -40 4 -88 3 -134 -3 -133 -4 -133 166 0 114
3 141 16 152 10 8 48 13 110 13 52 1 95 3 95 6 4 14 5 367 1 378 -3 8 -32 12
-97 12 -127 0 -125 -2 -125 161 0 72 5 139 10 150 10 17 22 19 113 19 l102 0
0 653 c0 611 1 653 18 670 16 16 56 17 685 13 367 -2 683 -7 702 -10z m122
-3875 c-2 -8 -5 -71 -8 -140 -3 -69 -7 -130 -8 -136 -2 -7 -226 -10 -647 -9
l-644 0 -3 85 c-2 46 -6 114 -11 152 l-7 67 665 -2 c563 -3 666 -5 663 -17z
m-12 -587 l0 -84 -650 0 -650 0 0 84 0 84 650 0 650 1 0 -85z m-3 -308 c6 -6
5 -99 -1 -142 -3 -18 -20 -19 -646 -19 l-643 0 -3 25 c-3 34 -6 112 -5 127 1
6 13 13 29 15 51 6 1263 0 1269 -6z m-57 -384 c0 -2 -18 -29 -39 -60 -131
-190 -341 -313 -540 -313 -71 0 -181 16 -210 31 -9 5 -41 20 -71 35 -105 51
-202 137 -280 246 -21 30 -34 56 -30 59 9 6 1170 8 1170 2z"/>
<path d="M3029 5627 c-5 -12 -2 -970 3 -973 22 -14 764 -3 853 12 17 3 44 7
60 10 115 19 246 71 303 119 63 53 112 143 129 235 9 44 9 174 1 220 -23 132
-121 271 -229 323 -97 46 -188 54 -696 55 -233 0 -423 0 -424 -1z"/>
</g>
</svg>
